<?xml version="1.0" encoding="UTF-8"?>
<svg version="1.1" xmlns="http://www.w3.org/2000/svg" width="24" height="24">
<path d="M0 0 C2.75946614 -0.30330339 5.24495685 -0.41834858 8 -0.375 C9.10601563 -0.39240234 9.10601563 -0.39240234 10.234375 -0.41015625 C12.375 -0.3984375 12.375 -0.3984375 16 0 C18.50506123 3.75759185 18.2604463 6.72027577 18.1875 11.0625 C18.18685547 11.79533203 18.18621094 12.52816406 18.18554688 13.28320312 C18.140625 18.71875 18.140625 18.71875 17 21 C16.113125 20.979375 15.22625 20.95875 14.3125 20.9375 C11.08292905 20.89551119 11.08292905 20.89551119 8.3125 21.5625 C6 22 6 22 3 21 C1.33637583 20.65179959 -0.32995171 20.31595508 -2 20 C-2.05392397 17.22890693 -2.09363455 14.45886182 -2.125 11.6875 C-2.14175781 10.90181641 -2.15851562 10.11613281 -2.17578125 9.30664062 C-2.18544922 8.1706543 -2.18544922 8.1706543 -2.1953125 7.01171875 C-2.20578613 6.31522217 -2.21625977 5.61872559 -2.22705078 4.90112305 C-2 3 -2 3 0 0 Z M1 3 C1 7.95 1 12.9 1 18 C2.65 18 4.3 18 6 18 C9 18 12 18 15 18 C15.02685095 15.52076199 15.04676547 13.0418116 15.0625 10.5625 C15.07087891 9.85544922 15.07925781 9.14839844 15.08789062 8.41992188 C15.09653588 6.61306441 15.05220011 4.80612397 15 3 C13.94812348 1.72561569 13.94812348 1.72561569 11.56640625 1.8671875 C10.57511719 1.86976562 9.58382813 1.87234375 8.5625 1.875 C7.57378906 1.87242188 6.58507812 1.86984375 5.56640625 1.8671875 C3.01090924 1.82771585 3.01090924 1.82771585 1 3 Z " fill="#FFFFFF" transform="translate(4,1)"/>
<path d="M0 0 C2.64 0 5.28 0 8 0 C8 0.66 8 1.32 8 2 C5.36 2 2.72 2 0 2 C0 1.34 0 0.68 0 0 Z " fill="#FFFFFF" transform="translate(8,9)"/>
</svg>
